<svg width="246" height="36" viewBox="0 0 246 36" fill="none" xmlns="http://www.w3.org/2000/svg">
<path d="M2.45455 31.0909H8.18182V17.1818L0 11.0454V28.6363C0 29.9925 1.09841 31.0909 2.45455 31.0909Z" fill="#4285F4"/>
<path d="M27.8184 31.0909H33.5456C34.9018 31.0909 36.0002 29.9925 36.0002 28.6363V11.0454L27.8184 17.1818V31.0909Z" fill="#34A853"/>
<path d="M27.8184 6.54563V17.182L36.0002 11.0456V7.77291C36.0002 4.7395 32.5372 3.007 30.1093 4.82745L27.8184 6.54563Z" fill="#FBBC04"/>
<path fill-rule="evenodd" clip-rule="evenodd" d="M8.18164 17.1818V6.54541L17.9998 13.909L27.818 6.54541V17.1818L17.9998 24.5454L8.18164 17.1818Z" fill="#EA4335"/>
<path d="M0 7.77291V11.0456L8.18182 17.182V6.54563L5.89091 4.82745C3.46295 3.007 0 4.7395 0 7.77291Z" fill="#C5221F"/>
<path d="M78.5458 9.81836H62.1821V26.182H78.5458V9.81836Z" fill="white"/>
<path d="M65.5386 22.5124C64.927 22.0992 64.5036 21.4958 64.2725 20.6981L65.692 20.1131C65.8209 20.604 66.0459 20.9844 66.367 21.2544C66.6861 21.5244 67.0747 21.6574 67.5288 21.6574C67.9931 21.6574 68.392 21.5163 68.7254 21.234C69.0588 20.9517 69.2266 20.5917 69.2266 20.156C69.2266 19.7101 69.0506 19.346 68.6988 19.0638C68.347 18.7815 67.9052 18.6404 67.3775 18.6404H66.5572V17.2351H67.2936C67.7477 17.2351 68.1302 17.1124 68.4411 16.8669C68.752 16.6215 68.9075 16.286 68.9075 15.8585C68.9075 15.4781 68.7684 15.1754 68.4902 14.9483C68.212 14.7213 67.8602 14.6067 67.4327 14.6067C67.0154 14.6067 66.6841 14.7172 66.4386 14.9401C66.1931 15.1631 66.0152 15.4372 65.9027 15.7604L64.4975 15.1754C64.6836 14.6476 65.0252 14.1813 65.5263 13.7783C66.0275 13.3754 66.6677 13.1729 67.445 13.1729C68.0197 13.1729 68.5372 13.2833 68.9954 13.5063C69.4536 13.7292 69.8136 14.0381 70.0734 14.4308C70.3331 14.8256 70.462 15.2674 70.462 15.7583C70.462 16.2594 70.3413 16.6829 70.1 17.0306C69.8586 17.3783 69.562 17.6442 69.2102 17.8304V17.9142C69.6745 18.1085 70.0529 18.4051 70.3516 18.804C70.6481 19.2029 70.7975 19.6794 70.7975 20.2358C70.7975 20.7922 70.6563 21.2892 70.374 21.7249C70.0918 22.1606 69.7011 22.5042 69.2061 22.7538C68.7091 23.0033 68.1506 23.1301 67.5309 23.1301C66.8129 23.1322 66.1502 22.9256 65.5386 22.5124Z" fill="#4285F4"/>
<path d="M74.2584 15.4676L72.6997 16.5946L71.9204 15.4123L74.7165 13.3955H75.7884V22.9089H74.2584V15.4676Z" fill="#4285F4"/>
<path d="M78.5458 26.1816H62.1821V33.5453H78.5458V26.1816Z" fill="#34A853"/>
<path d="M78.5456 2.45459H57.2729C55.9168 2.45459 54.8184 3.553 54.8184 4.90914V26.1819H62.182V9.81823H78.5456V2.45459Z" fill="#4285F4"/>
<path d="M54.8184 26.1816V31.0907C54.8184 32.4469 55.9168 33.5453 57.2729 33.5453H62.182V26.1816H54.8184Z" fill="#188038"/>
<path d="M85.909 9.81836H78.5454V26.182H85.909V9.81836Z" fill="#FBBC04"/>
<path d="M85.909 9.81823V4.90914C85.909 3.553 84.8106 2.45459 83.4545 2.45459H78.5454V9.81823H85.909Z" fill="#1967D2"/>
<path d="M78.5454 33.5453L85.909 26.1816H78.5454V33.5453Z" fill="#EA4335"/>
<path d="M107.571 28.9838L109.146 31.7042C109.473 32.277 109.943 32.727 110.496 33.0542L116.121 23.3179H104.871C104.871 23.952 105.034 24.5861 105.362 25.1588L107.571 28.9838Z" fill="#0066DA"/>
<path d="M122.727 11.8633L117.102 2.12695C116.55 2.45423 116.08 2.90423 115.752 3.47695L105.362 21.477C105.034 22.0497 104.871 22.6838 104.871 23.3179H116.121L122.727 11.8633Z" fill="#00AC47"/>
<path d="M122.728 11.8635L128.353 2.12714C127.8 1.79987 127.166 1.63623 126.512 1.63623H118.943C118.289 1.63623 117.655 1.82032 117.103 2.12714L122.728 11.8635Z" fill="#00832D"/>
<path d="M129.334 23.3179H116.121L110.496 33.0542C111.048 33.3815 111.682 33.5451 112.337 33.5451H133.118C133.773 33.5451 134.407 33.3611 134.959 33.0542L129.334 23.3179Z" fill="#2684FC"/>
<path d="M134.959 33.0542C135.511 32.727 135.982 32.277 136.309 31.7042L136.964 30.5792L140.093 25.1588C140.42 24.5861 140.584 23.952 140.584 23.3179H129.354L134.959 33.0542Z" fill="#EA4335"/>
<path d="M134.898 12.477L129.703 3.47695C129.375 2.90423 128.905 2.45423 128.353 2.12695L122.728 11.8633L129.334 23.3179H140.564C140.564 22.6838 140.4 22.0497 140.073 21.477L134.898 12.477Z" fill="#FFBA00"/>
<path d="M171 27H162V33.5455C162 34.9016 163.098 36 164.455 36H171V27Z" fill="#00832D"/>
<path d="M171 0H164.455C163.098 0 162 1.09841 162 2.45455V9V18V27H171V18V9H179.182V0H171Z" fill="#FFBA00"/>
<path d="M188.182 27H179.182V36H185.727C187.083 36 188.182 34.9016 188.182 33.5455V27Z" fill="#0066DA"/>
<path d="M179.182 27H171V36H179.182V27Z" fill="#00AC47"/>
<path d="M179.182 9V18V27H188.182V18V9H179.182Z" fill="#2684FC"/>
<path d="M179.182 0V9H188.182L179.182 0Z" fill="#EA4335"/>
<path d="M179.182 9H171V27H179.182V9Z" fill="white"/>
<path d="M229.909 18.0004L233.399 21.989L238.091 24.9877L238.909 18.027L238.091 11.2197L233.309 13.8543L229.909 18.0004Z" fill="#00832D"/>
<path d="M209.659 24.341V30.2729C209.659 31.629 210.758 32.7274 212.114 32.7274H218.046L219.273 28.2438L218.046 24.341L213.975 23.1138L209.659 24.341Z" fill="#0066DA"/>
<path d="M218.046 3.27295L209.659 11.6593L213.975 12.8866L218.046 11.6593L219.252 7.80772L218.046 3.27295Z" fill="#E94235"/>
<path d="M218.046 11.6592H209.659V24.341H218.046V11.6592Z" fill="#2684FC"/>
<path d="M243.448 6.82409L238.091 11.2198V24.9877L243.47 29.3998C244.276 30.0298 245.454 29.455 245.454 28.4323V7.77318C245.454 6.73614 244.25 6.1675 243.448 6.82409Z" fill="#00AC47"/>
<path d="M229.909 18V24.3409H218.045V32.7273H235.636C236.992 32.7273 238.091 31.6289 238.091 30.2727V24.9873L229.909 18Z" fill="#00AC47"/>
<path d="M235.636 3.27295H229.22H218.045V11.6593H229.909V18.0002L238.091 11.2195V5.72749C238.091 4.37136 236.992 3.27295 235.636 3.27295Z" fill="#FFBA00"/>
</svg>
